<svg xmlns="http://www.w3.org/2000/svg" width="512" height="512" viewBox="0 0 512 512">
    <defs>
        <linearGradient id="a" x1="50%" x2="50%" y1="100%" y2="0%">
            <stop offset="0%" stop-color="#ACACAC"/>
            <stop offset="100%" stop-color="#EFEFEF"/>
        </linearGradient>
        <linearGradient id="b" x1="97.29%" x2="2.854%" y1="97.29%" y2="2.854%">
            <stop offset="0%" stop-color="#D5AC73"/>
            <stop offset="100%" stop-color="#F5D5A0"/>
        </linearGradient>
    </defs>
    <g fill="none" fill-rule="evenodd">
        <path d="M47 151h418v210H47z"/>
        <path fill="url(#a)" d="M335.535 2.61A105.006 105.006 0 0 0 316.29.078a104.775 104.775 0 0 0-69.835 23.157 108118.867 108118.867 0 0 1-51.41 41.412c-33.958 31.036-29.238 59.113-25.325 65.781 21.919-17.256 77.856-62.597 98.97-79.632a69.347 69.347 0 0 1 46.234-15.332c20.299.783 38.93 10.186 51.736 26.291a68.905 68.905 0 0 1 14.83 39.053c2.25 41.32-31.524 74.808-71.918 73.25-23.05-.891-42.683-11.991-72.275-30.519-.446.42-.872.838-1.332 1.258 0 0-13.195 10.623-26.718 21.515 21.669 19.552 61.776 43.2 98.959 43.132 57.764-.107 106.496-42.92 108.725-100.642 1.973-51.128-33.218-95.233-81.396-106.192" transform="translate(47 151)"/>
        <g>
            <path d="M47 151h418v210H47z"/>
            <path fill="url(#b)" fill-rule="nonzero" d="M81.475 206.834a105.006 105.006 0 0 0 19.245 2.532 104.775 104.775 0 0 0 69.835-23.157c12.844-10.363 51.409-41.412 51.409-41.412 33.959-31.036 29.239-59.113 25.326-65.78-21.919 17.255-77.856 62.596-98.972 79.631a69.343 69.343 0 0 1-46.232 15.332c-20.299-.783-38.931-10.186-51.736-26.29a68.905 68.905 0 0 1-14.831-39.054c-2.249-41.32 31.525-74.808 71.919-73.25 23.05.891 42.682 11.991 72.275 30.52.446-.42.872-.839 1.332-1.259 0 0 13.195-10.623 26.718-21.515C186.094 23.58 145.987-.068 108.804 0 51.04.107 2.308 42.92.079 100.642c-1.973 51.128 33.218 95.233 81.396 106.192" transform="translate(47 151)"/>
        </g>
    </g>
</svg>
